<svg xmlns="http://www.w3.org/2000/svg" width="54" height="54" viewBox="0 0 54 54"><defs><mask id="qmwib" width="2" height="2" x="-1" y="-1"><path fill="#fff" d="M8 8h39v38H8z"/><path d="M27.047 8c10.519 0 19.047 8.506 19.047 19 0 10.493-8.528 19-19.047 19C16.527 46 8 37.493 8 27 8 16.505 16.527 8 27.047 8z"/></mask><filter id="qmwia" width="79" height="78" x="-12" y="-12" filterUnits="userSpaceOnUse"><feOffset in="SourceGraphic" result="FeOffset1025Out"/><feGaussianBlur in="FeOffset1025Out" result="FeGaussianBlur1026Out" stdDeviation="4 4"/></filter><clipPath id="qmwic"><path fill="#fff" d="M32.988 18.159l-8.653 8.46 8.405 8.216"/></clipPath></defs><g><g><g><g filter="url(#qmwia)"><path fill="none" d="M27.047 8c10.519 0 19.047 8.506 19.047 19 0 10.493-8.528 19-19.047 19C16.527 46 8 37.493 8 27 8 16.505 16.527 8 27.047 8z" mask="url(&quot;#qmwib&quot;)"/><path fill="#3a445e" fill-opacity=".25" d="M27.047 8c10.519 0 19.047 8.506 19.047 19 0 10.493-8.528 19-19.047 19C16.527 46 8 37.493 8 27 8 16.505 16.527 8 27.047 8z"/></g><path fill="#fff" d="M27.047 8c10.519 0 19.047 8.506 19.047 19 0 10.493-8.528 19-19.047 19C16.527 46 8 37.493 8 27 8 16.505 16.527 8 27.047 8z"/></g><g><path fill="none" stroke="#002cba" stroke-miterlimit="20" stroke-width="4" d="M32.988 18.159v0l-8.653 8.46v0l8.405 8.216v0" clip-path="url(&quot;#qmwic&quot;)"/></g></g></g></svg>