<svg xmlns="http://www.w3.org/2000/svg" width="54" height="54" viewBox="0 0 54 54"><defs><mask id="htlgb" width="2" height="2" x="-1" y="-1"><path fill="#fff" d="M7 8h39v38H7z"/><path d="M26.953 8C37.473 8 46 16.505 46 27c0 10.493-8.528 19-19.047 19-10.52 0-19.047-8.507-19.047-19 0-10.494 8.528-19 19.047-19z"/></mask><filter id="htlga" width="79" height="78" x="-13" y="-12" filterUnits="userSpaceOnUse"><feOffset in="SourceGraphic" result="FeOffset1074Out"/><feGaussianBlur in="FeOffset1074Out" result="FeGaussianBlur1075Out" stdDeviation="4 4"/></filter><clipPath id="htlgc"><path fill="#fff" d="M23.276 16.992l9.738 10.15L23.556 37"/></clipPath></defs><g><g><g><g filter="url(#htlga)"><path fill="none" d="M26.953 8C37.473 8 46 16.505 46 27c0 10.493-8.528 19-19.047 19-10.52 0-19.047-8.507-19.047-19 0-10.494 8.528-19 19.047-19z" mask="url(&quot;#htlgb&quot;)"/><path fill="#3a445e" fill-opacity=".25" d="M26.953 8C37.473 8 46 16.505 46 27c0 10.493-8.528 19-19.047 19-10.52 0-19.047-8.507-19.047-19 0-10.494 8.528-19 19.047-19z"/></g><path fill="#fff" d="M26.953 8C37.473 8 46 16.505 46 27c0 10.493-8.528 19-19.047 19-10.52 0-19.047-8.507-19.047-19 0-10.494 8.528-19 19.047-19z"/></g><g><path fill="none" stroke="#002cba" stroke-miterlimit="20" stroke-width="4" d="M23.276 16.992v0l9.738 10.15v0L23.556 37v0" clip-path="url(&quot;#htlgc&quot;)"/></g></g></g></svg>