<svg xmlns="http://www.w3.org/2000/svg" width="54" height="54" viewBox="0 0 54 54"><defs><mask id="hojib" width="2" height="2" x="-1" y="-1"><path fill="#fff" d="M7 8h39v38H7z"/><path d="M26.953 8C37.473 8 46 16.505 46 27c0 10.493-8.528 19-19.047 19-10.52 0-19.047-8.507-19.047-19 0-10.494 8.528-19 19.047-19z"/></mask><filter id="hojia" width="79" height="78" x="-13" y="-12" filterUnits="userSpaceOnUse"><feOffset in="SourceGraphic" result="FeOffset1052Out"/><feGaussianBlur in="FeOffset1052Out" result="FeGaussianBlur1053Out" stdDeviation="4 4"/></filter></defs><g><g><g filter="url(#hojia)"><path fill="none" d="M26.953 8C37.473 8 46 16.505 46 27c0 10.493-8.528 19-19.047 19-10.52 0-19.047-8.507-19.047-19 0-10.494 8.528-19 19.047-19z" mask="url(&quot;#hojib&quot;)"/><path fill="#3a445e" fill-opacity=".25" d="M26.953 8C37.473 8 46 16.505 46 27c0 10.493-8.528 19-19.047 19-10.52 0-19.047-8.507-19.047-19 0-10.494 8.528-19 19.047-19z"/></g><path fill="#fff" d="M26.953 8C37.473 8 46 16.505 46 27c0 10.493-8.528 19-19.047 19-10.52 0-19.047-8.507-19.047-19 0-10.494 8.528-19 19.047-19z"/></g></g></svg>