<svg xmlns="http://www.w3.org/2000/svg" width="54" height="54" viewBox="0 0 54 54"><defs><mask id="t5wqb" width="2" height="2" x="-1" y="-1"><path fill="#fff" d="M7 8h39v38H7z"/><path d="M26.953 8C37.473 8 46 16.507 46 27s-8.528 19-19.047 19c-10.52 0-19.047-8.507-19.047-19S16.434 8 26.953 8z"/></mask><filter id="t5wqa" width="79" height="78" x="-13" y="-12" filterUnits="userSpaceOnUse"><feOffset in="SourceGraphic" result="FeOffset1025Out"/><feGaussianBlur in="FeOffset1025Out" result="FeGaussianBlur1026Out" stdDeviation="4 4"/></filter><clipPath id="t5wqc"><path fill="#fff" d="M23.277 16.996l9.737 10.15-9.458 9.858"/></clipPath></defs><g><g><g><g filter="url(#t5wqa)"><path fill="none" d="M26.953 8C37.473 8 46 16.507 46 27s-8.528 19-19.047 19c-10.52 0-19.047-8.507-19.047-19S16.434 8 26.953 8z" mask="url(&quot;#t5wqb&quot;)"/><path fill="#3a445e" fill-opacity=".25" d="M26.953 8C37.473 8 46 16.507 46 27s-8.528 19-19.047 19c-10.52 0-19.047-8.507-19.047-19S16.434 8 26.953 8z"/></g><path fill="#fff" d="M26.953 8C37.473 8 46 16.507 46 27s-8.528 19-19.047 19c-10.52 0-19.047-8.507-19.047-19S16.434 8 26.953 8z"/></g><g><path fill="none" stroke="#002cba" stroke-miterlimit="20" stroke-width="4" d="M23.277 16.996v0l9.737 10.15v0l-9.458 9.858v0" clip-path="url(&quot;#t5wqc&quot;)"/></g></g></g></svg>