<svg xmlns="http://www.w3.org/2000/svg" width="54" height="54" viewBox="0 0 54 54"><defs><mask id="78g2b" width="2" height="2" x="-1" y="-1"><path fill="#fff" d="M8 8h39v38H8z"/><path d="M27.047 8c10.52 0 19.047 8.507 19.047 19s-8.528 19-19.047 19C16.527 46 8 37.493 8 27S16.528 8 27.047 8z"/></mask><filter id="78g2a" width="79" height="78" x="-12" y="-12" filterUnits="userSpaceOnUse"><feOffset in="SourceGraphic" result="FeOffset1054Out"/><feGaussianBlur in="FeOffset1054Out" result="FeGaussianBlur1055Out" stdDeviation="4 4"/></filter><clipPath id="78g2c"><path fill="#fff" d="M32.988 18.162l-8.653 8.46 8.405 8.216"/></clipPath></defs><g><g><g><g filter="url(#78g2a)"><path fill="none" d="M27.047 8c10.52 0 19.047 8.507 19.047 19s-8.528 19-19.047 19C16.527 46 8 37.493 8 27S16.528 8 27.047 8z" mask="url(&quot;#78g2b&quot;)"/><path fill="#3a445e" fill-opacity=".25" d="M27.047 8c10.52 0 19.047 8.507 19.047 19s-8.528 19-19.047 19C16.527 46 8 37.493 8 27S16.528 8 27.047 8z"/></g><path fill="#fff" d="M27.047 8c10.52 0 19.047 8.507 19.047 19s-8.528 19-19.047 19C16.527 46 8 37.493 8 27S16.528 8 27.047 8z"/></g><g><path fill="none" stroke="#002cba" stroke-miterlimit="20" stroke-width="4" d="M32.988 18.162v0l-8.653 8.46v0l8.405 8.216v0" clip-path="url(&quot;#78g2c&quot;)"/></g></g></g></svg>